<?xml version="1.0" encoding="UTF-8"?>
<svg id="Layer_1" data-name="Layer 1" xmlns="http://www.w3.org/2000/svg" viewBox="0 0 1080 140">
  <defs>
    <style>
      .cls-1 {
        fill: #fff;
        stroke-width: 0px;
      }
    </style>
  </defs>
  <path class="cls-1" d="m563.77,69.35c2.06-1.2,3.86-2.59,5.03-3.83,3.05-3.26,4.36-7.31,3.9-12.04-.36-3.15-1.37-5.93-2.96-8.24-4.66-7.23-15.18-9.08-23.44-8.41-8.5.57-15.64,4.24-21.22,10.93-5.43,6.52-8.05,14.32-9.3,19.71-1.83,7.99-3.13,18.18,3.12,26.2,4.1,5.16,11.23,8.5,20.11,9.4,1.59.14,3.12.21,4.61.21,3.8,0,7.26-.45,10.31-1.35,9.92-2.54,18.05-9.45,20.24-17.17h0c1.12-4.11.48-8.25-1.72-11.13-1.87-2.34-4.9-3.82-8.68-4.29Zm2.6,19.44c-4.67,6.16-13.31,9.99-22.54,9.99-7.4,0-13.7-1.73-17.72-4.86-4.88-3.86-7.05-9.96-6.47-18.09,1.42-13.9,8.09-30.06,22.57-33.74,2.78-.76,5.38-.86,7.73-.86,11.59.24,17.46,5.2,17.46,14.77.08,3.49-2.17,7.03-5.88,9.23-2.98,1.72-5.53,2.63-7.37,2.63-2.59,0-6.11-1.59-6.7-3.58-.12-1.83-.72-3.69-1.72-5.4-.3-.59-.94-1.27-2.31-1.27-.88,0-1.73.4-2.22,1.05-.51.67-.58,1.48-.18,2.25.64,1.17.97,2.1,1.05,2.95v.42l.08.2c.02.05.03.11.04.16.02.1.05.22.09.36.07,1.42,0,2.89-.11,4.41-.6,3.83-1.47,6.72-2.75,9.07l-.06.13c-.3.77-.16,1.6.38,2.23.5.58,1.28.93,2.09.93.88,0,1.63-.35,2.24-1.03l.08-.1c3.31-4.56,11.16-7.02,16.86-7.02s8.21,2.3,8.38,7.04c.08,2.67-.91,5.34-3.03,8.16Zm-17.34-17.33c-.71.32-1.37.66-2,1,.12-.6.23-1.17.31-1.73.56.29,1.13.53,1.7.73Z"/>
  <polygon class="cls-1" points="86.37 101.12 137.82 101.12 137.82 90 98.01 90.08 98.01 75.04 131.52 75.04 131.52 64.96 98.01 64.96 98.01 50 137.82 50 137.82 38.88 86.37 38.88 86.37 101.12"/>
  <polygon class="cls-1" points="145.71 49.48 165.49 49.48 165.49 101.12 177.04 101.12 177.04 49.48 197.25 49.48 197.25 38.88 145.71 38.88 145.71 49.48"/>
  <polygon class="cls-1" points="298.62 101.12 350.07 101.12 350.07 90 310.26 90.08 310.26 75.05 343.77 75.05 343.77 64.96 310.26 64.96 310.26 50 350.07 50 350.07 38.88 298.62 38.88 298.62 101.12"/>
  <polygon class="cls-1" points="357.39 101.12 408.84 101.12 408.84 90 369.03 90.08 369.03 75.04 402.54 75.04 402.54 64.96 369.03 64.96 369.03 50 408.84 50 408.84 38.88 357.39 38.88 357.39 101.12"/>
  <polygon class="cls-1" points="455.96 80.67 455.79 80.67 427.38 38.88 416.16 38.88 416.16 101.12 427.8 101.12 427.8 58.12 427.88 58.12 456.38 101.12 467.61 101.12 467.61 38.88 455.96 38.88 455.96 80.67"/>
  <path class="cls-1" d="m63.18,68.29c4.22-.19,7.46-1.42,9.66-3.67,2.08-2.13,3.13-5.18,3.04-8.8-.15-4.84-1.81-8.76-4.95-11.64-6.32-5.8-16.31-5.31-16.68-5.3h-30.26v62.25h31.27s.21,0,.47,0c2.27,0,12.03-.36,18.2-6.33,3.35-3.24,5.05-7.57,5.05-12.88,0-8.01-5.88-13.05-15.8-13.63Zm-28.67-18.28h18.46c.07,0,7.24-.11,10.29,2.89.88.86,1.31,1.89,1.31,3.12,0,1.61-.54,2.91-1.64,3.99-3.28,3.2-10.32,3.06-10.39,3.06h-18.03v-13.05Zm30.93,37.77c-3.44,3.24-9.69,2.91-9.75,2.91h-21.18s-.08-16.51-.08-16.51h21.83c.06-.01,6.25-.13,9.48,3.02,1.29,1.26,1.94,2.9,1.94,4.89,0,2.37-.76,4.28-2.25,5.69Z"/>
  <path class="cls-1" d="m609.26,37.75c-7.99,0-13.58,2.26-16.87,4.15-9.09,5.23-13.7,14.71-13.7,28.19,0,20.44,11.21,32.16,30.75,32.16,6.56,0,12.29-1.37,17.01-4.06,9.06-5.16,13.65-14.61,13.65-28.1,0-30.78-25.69-32.34-30.84-32.34Zm.99,53.61c-.32.01-.59.03-.81.04-.16-.01-.34-.02-.55-.04-4.53-.27-18.3-1.11-18.3-21.28,0-9.14,2.74-15.47,8.14-18.83,4.24-2.64,8.85-2.66,10.66-2.66h.04c.96,0,5.97.15,10.56,3.18,5.44,3.59,8.2,9.76,8.2,18.32,0,5.61,0,20.51-17.95,21.28Z"/>
  <polygon class="cls-1" points="658.05 38.92 646.75 38.92 646.75 101.08 688.19 101.08 688.19 90.38 658.05 90.47 658.05 38.92"/>
  <polygon class="cls-1" points="706.81 38.92 695.51 38.92 695.51 101.08 736.94 101.08 736.94 90.38 706.81 90.47 706.81 38.92"/>
  <polygon class="cls-1" points="864.99 49.48 884.77 49.48 884.77 101.12 896.33 101.12 896.33 49.48 916.53 49.48 916.53 38.88 864.99 38.88 864.99 49.48"/>
  <rect class="cls-1" x="923.85" y="38.88" width="11.64" height="62.25"/>
  <polygon class="cls-1" points="968.94 81.28 968.29 81.28 955.43 38.88 942.82 38.88 962.74 101.12 973.89 101.12 994.34 38.88 981.72 38.88 968.94 81.28"/>
  <polygon class="cls-1" points="1053.12 50 1053.12 38.88 1001.67 38.88 1001.67 101.12 1053.12 101.12 1053.12 90 1013.32 90.08 1013.32 75.04 1046.82 75.04 1046.82 64.96 1013.32 64.96 1013.32 50 1053.12 50"/>
  <path class="cls-1" d="m833.17,48.74c14.98-.07,16.59,11.38,17.24,13.81l10.51-3.54-.09-.74c-.02-.2-2.76-20.43-27.37-20.43-.52-.02-12.86-.32-21.78,8.31-5.8,5.61-8.74,13.66-8.74,23.94s2.91,18.12,8.66,23.69c8.24,7.99,19.45,8.38,21.51,8.38.17,0,.28,0,.32,0,24.64,0,27.37-20.23,27.4-20.43l.09-.74-10.42-3.51c-.15,1.16-.36,5.55-3.76,9.25-2.83,3.09-7.49,4.53-13.6,4.53-.08,0-7.32.19-12.62-4.94-3.79-3.66-5.7-9.12-5.7-16.24s1.93-12.66,5.73-16.36c5.29-5.14,12.52-4.99,12.62-4.99Z"/>
  <polygon class="cls-1" points="744.33 101.12 795.79 101.12 795.79 90 755.98 90.08 755.98 75.05 789.48 75.05 789.48 64.96 755.98 64.96 755.98 50 795.79 50 795.79 38.88 744.33 38.88 744.33 101.12"/>
  <path class="cls-1" d="m283.79,38.88h-71.97c-6.89,0-9.24,4.24-6.15,10.4l23.59,47.15c3.19,6.37,8.62,6.21,11.97-.07l6.57-12.31,6.57,12.31c3.36,6.28,8.79,6.44,11.98.07l23.59-47.15c3.09-6.16.73-10.4-6.15-10.4Zm-49.64,26.8c-4.46,0-7.77-3.1-7.77-7.37s3.3-7.39,7.77-7.39,7.77,3.1,7.77,7.39-3.3,7.37-7.77,7.37Zm27.71,0c-4.46,0-7.77-3.1-7.77-7.37s3.3-7.39,7.77-7.39,7.77,3.1,7.77,7.39-3.3,7.37-7.77,7.37Z"/>
</svg>