<svg width="6" height="7" viewBox="0 0 6 7" fill="none" xmlns="http://www.w3.org/2000/svg">
<path d="M0.375 0.875H1.125V1.625H0.375V0.875ZM1.875 2.375H1.125V1.625H1.875V2.375ZM2.625 3.125H1.875V2.375H2.625V3.125ZM3.375 3.125H2.625V3.875H1.875V4.625H1.125V5.375H0.375V6.125H1.125V5.375H1.875V4.625H2.625V3.875H3.375V4.625H4.125V5.375H4.875V6.125H5.625V5.375H4.875V4.625H4.125V3.875H3.375V3.125ZM4.125 2.375V3.125H3.375V2.375H4.125ZM4.875 1.625V2.375H4.125V1.625H4.875ZM4.875 1.625V0.875H5.625V1.625H4.875Z" fill="#111111"/>
</svg>
