<svg width="160" height="115" viewBox="0 0 160 115" fill="none" xmlns="http://www.w3.org/2000/svg">
<path d="M160 12L139.848 0.719742L140.155 23.8117L160 12ZM0.0528937 111.449C1.4393 111.767 2.79902 112.062 4.13272 112.334L4.93117 108.414C3.63056 108.149 2.30278 107.862 0.947106 107.551L0.0528937 111.449ZM12.0583 113.727C14.8627 114.136 17.5402 114.431 20.0986 114.618L20.3905 110.629C17.9346 110.449 15.3526 110.165 12.6357 109.769L12.0583 113.727ZM28.261 114.848C31.1671 114.787 33.8993 114.564 36.4729 114.188L35.8952 110.23C33.4976 110.58 30.9309 110.791 28.1771 110.849L28.261 114.848ZM44.549 112.367C47.3157 111.497 49.8588 110.415 52.2074 109.144L50.3034 105.626C48.1841 106.773 45.8774 107.756 43.3494 108.551L44.549 112.367ZM59.1317 104.429C61.2746 102.63 63.2101 100.648 64.9823 98.5218L61.91 95.9604C60.2724 97.9247 58.5021 99.7345 56.5599 101.365L59.1317 104.429ZM69.7987 91.8403C71.2315 89.5647 72.5568 87.1885 73.8122 84.746L70.2546 82.9175C69.0394 85.2818 67.7712 87.5532 66.4138 89.709L69.7987 91.8403ZM77.3091 77.467C78.4058 75.0552 79.4781 72.5993 80.552 70.1364L76.8854 68.5376C75.8101 71.0038 74.7497 73.4321 73.6679 75.8113L77.3091 77.467ZM83.7603 62.8596C84.843 60.4594 85.9581 58.0703 87.135 55.7099L83.5554 53.9249C82.3483 56.3458 81.2104 58.7845 80.1141 61.2147L83.7603 62.8596ZM90.8459 48.7947C92.1525 46.5479 93.5445 44.3521 95.0486 42.2258L91.783 39.9159C90.2013 42.1519 88.7458 44.4492 87.3881 46.7838L90.8459 48.7947ZM99.8623 36.1431C101.548 34.2469 103.362 32.4315 105.329 30.714L102.698 27.7011C100.596 29.536 98.6632 31.4712 96.8726 33.4857L99.8623 36.1431ZM111.452 26.0423C113.531 24.6636 115.76 23.3772 118.157 22.197L116.39 18.6084C113.84 19.8638 111.463 21.2353 109.241 22.7087L111.452 26.0423ZM125.313 19.1855C127.656 18.3523 130.139 17.6065 132.773 16.9579L131.817 13.0739C129.058 13.7533 126.447 14.537 123.973 15.4167L125.313 19.1855ZM140.412 15.4261C142.872 15.0368 145.448 14.7225 148.147 14.4891L147.802 10.504C145.014 10.7451 142.344 11.0705 139.786 11.4752L140.412 15.4261Z" fill="#E45937"/>
</svg>
